<?xml version="1.0" encoding="utf-8"?><!-- Uploaded to: SVG Repo, www.svgrepo.com, Generator: SVG Repo Mixer Tools -->
<svg width="800px" height="800px" viewBox="0 0 24 24" xmlns="http://www.w3.org/2000/svg" id="present-check" class="icon glyph"><path d="M21,3H3A1,1,0,0,0,3,5V16a2,2,0,0,0,2,2H19a2,2,0,0,0,2-2V5a1,1,0,0,0,0-2ZM15.71,9.71l-4,4a1,1,0,0,1-1.42,0l-2-2a1,1,0,0,1,1.42-1.42L11,11.59l3.29-3.3a1,1,0,0,1,1.42,1.42ZM10.08,19l-1.3,1.62A1,1,0,0,1,8,21a1,1,0,0,1-.62-.22,1,1,0,0,1-.16-1.4l.3-.38Zm6.54,1.78A1,1,0,0,1,16,21a1,1,0,0,1-.78-.38L13.92,19h2.56l.3.38A1,1,0,0,1,16.62,20.78Z" style="fill:#231f20"></path></svg>