<svg width="948" height="948" viewBox="0 0 948 948" fill="none" xmlns="http://www.w3.org/2000/svg">
<path d="M379.2 189.97C357.847 189.969 337.367 196.958 322.264 209.399C307.16 221.841 298.669 238.717 298.657 256.318C298.675 266.369 301.462 276.287 306.808 285.321C312.154 294.355 319.918 302.27 329.516 308.47C333.652 314.754 336.12 321.928 336.12 329.023C336.12 335.818 333.679 342.078 329.64 347.6H221.2C186.187 347.6 158 375.787 158 410.8V519.487C163.448 523.386 169.601 525.72 176.269 525.72C183.363 525.72 190.537 523.253 196.821 519.116C203.021 509.518 210.937 501.753 219.971 496.408C229.005 491.062 238.922 488.275 248.973 488.257C266.574 488.269 283.451 496.76 295.892 511.864C308.334 526.967 315.323 547.447 315.321 568.8C315.323 590.153 308.334 610.633 295.892 625.737C283.451 640.84 266.574 649.331 248.973 649.343C239.529 649.332 230.195 646.876 221.596 642.14C212.996 637.404 205.328 630.496 199.105 621.878C192.424 616.996 184.585 613.916 177.071 613.916C170.045 613.916 163.656 616.64 158 620.952V726.8C158 761.813 186.187 790 221.2 790H537.2C572.213 790 600.4 761.813 600.4 726.8V620.952C606.056 616.64 612.445 613.916 619.471 613.916C626.985 613.916 634.824 616.994 641.505 621.878C647.728 630.496 655.396 637.404 663.996 642.14C672.595 646.876 681.929 649.332 691.373 649.343C708.974 649.331 725.851 640.84 738.292 625.737C750.734 610.633 757.723 590.153 757.721 568.8C757.723 547.447 750.734 526.967 738.292 511.864C725.851 496.76 708.974 488.269 691.373 488.257C681.322 488.275 671.405 491.062 662.371 496.408C653.337 501.753 645.421 509.518 639.221 519.116C632.937 523.253 625.763 525.72 618.669 525.72C612.001 525.72 605.848 523.385 600.4 519.487V410.8C600.4 375.787 572.213 347.6 537.2 347.6H431.599C427.139 341.873 424.316 335.376 424.316 328.22C424.316 320.707 427.396 312.806 432.278 306.125C440.887 299.908 447.789 292.251 452.525 283.662C457.261 275.074 459.721 265.752 459.743 256.318C459.731 238.717 451.24 221.841 436.136 209.399C421.033 196.958 400.553 189.969 379.2 189.97Z" fill="white"/>
</svg>
