<svg width="800" height="800" viewBox="0 0 800 800" fill="none" xmlns="http://www.w3.org/2000/svg">
<path d="M700 100H100C91.1594 100 82.6809 103.512 76.4297 109.763C70.1785 116.014 66.6666 124.493 66.6666 133.333C66.6666 142.174 70.1785 150.652 76.4297 156.904C82.6809 163.155 91.1594 166.667 100 166.667V533.333C100 551.014 107.024 567.971 119.526 580.474C132.029 592.976 148.986 600 166.667 600H633.333C651.014 600 667.971 592.976 680.474 580.474C692.976 567.971 700 551.014 700 533.333V166.667C708.84 166.667 717.319 163.155 723.57 156.904C729.821 150.652 733.333 142.174 733.333 133.333C733.333 124.493 729.821 116.014 723.57 109.763C717.319 103.512 708.84 100 700 100ZM523.667 323.667L390.333 457C387.235 460.124 383.548 462.604 379.486 464.296C375.424 465.989 371.067 466.86 366.667 466.86C362.266 466.86 357.909 465.989 353.847 464.296C349.785 462.604 346.099 460.124 343 457L276.333 390.333C270.056 384.057 266.53 375.543 266.53 366.667C266.53 357.79 270.056 349.277 276.333 343C282.61 336.723 291.123 333.197 300 333.197C308.877 333.197 317.39 336.723 323.667 343L366.667 386.333L476.333 276.333C482.61 270.057 491.123 266.53 500 266.53C508.877 266.53 517.39 270.057 523.667 276.333C529.943 282.61 533.47 291.123 533.47 300C533.47 308.877 529.943 317.39 523.667 323.667ZM336 633.333L292.667 687.333C289.562 691.262 285.613 694.44 281.112 696.633C276.611 698.826 271.673 699.977 266.667 700C259.148 699.956 251.865 697.372 246 692.667C239.132 687.167 234.717 679.174 233.717 670.432C232.718 661.69 235.216 652.908 240.667 646L250.667 633.333H336ZM554 692.667C548.135 697.372 540.852 699.956 533.333 700C528.326 699.977 523.389 698.826 518.888 696.633C514.387 694.44 510.438 691.262 507.333 687.333L464 633.333H549.333L559.333 646C564.784 652.908 567.281 661.69 566.282 670.432C565.283 679.174 560.868 687.167 554 692.667Z" fill="white"/>
</svg>
