<svg width="800" height="800" viewBox="0 0 800 800" fill="none" xmlns="http://www.w3.org/2000/svg">
<path d="M334.25 427.75C364.164 427.75 393.407 418.879 418.28 402.26C443.153 385.64 462.539 362.018 473.987 334.381C485.435 306.743 488.43 276.332 482.594 246.993C476.758 217.653 462.353 190.703 441.2 169.55C420.047 148.397 393.097 133.992 363.757 128.156C334.418 122.32 304.006 125.315 276.369 136.763C248.732 148.211 225.11 167.597 208.49 192.47C191.871 217.343 183 246.586 183 276.5C183.066 316.594 199.023 355.026 227.373 383.377C255.724 411.727 294.156 427.684 334.25 427.75ZM334.25 175C354.275 175 373.851 180.938 390.501 192.064C407.152 203.189 420.129 219.002 427.793 237.503C435.456 256.004 437.461 276.362 433.555 296.003C429.648 315.643 420.005 333.684 405.845 347.844C391.684 362.005 373.643 371.648 354.003 375.554C334.362 379.461 314.004 377.456 295.503 369.793C277.002 362.129 261.189 349.152 250.064 332.501C238.938 315.851 233 296.275 233 276.25C233.066 249.417 243.755 223.702 262.728 204.728C281.702 185.755 307.417 175.066 334.25 175ZM642.75 732.25C640.426 729.907 637.661 728.047 634.614 726.778C631.568 725.508 628.3 724.855 625 724.855C621.7 724.855 618.432 725.508 615.386 726.778C612.339 728.047 609.574 729.907 607.25 732.25C604.974 734.628 603.19 737.431 602 740.5C600.719 743.505 600.04 746.733 600 750C600 756.63 602.634 762.989 607.322 767.678C612.011 772.366 618.37 775 625 775C631.63 775 637.989 772.366 642.678 767.678C647.366 762.989 650 756.63 650 750C649.961 746.733 649.281 743.505 648 740.5C646.81 737.431 645.026 734.628 642.75 732.25ZM525 725H425C418.37 725 412.011 727.634 407.322 732.322C402.634 737.011 400 743.37 400 750C400 756.63 402.634 762.989 407.322 767.678C412.011 772.366 418.37 775 425 775H525C531.63 775 537.989 772.366 542.678 767.678C547.366 762.989 550 756.63 550 750C550 743.37 547.366 737.011 542.678 732.322C537.989 727.634 531.63 725 525 725Z" fill="white"/>
<path d="M607 673.25H608.75C610.083 672.452 611.338 671.531 612.5 670.5L615.5 668C616.66 666.613 617.666 665.104 618.5 663.5C620.396 661.048 621.527 658.091 621.75 655C621.885 653.503 621.885 651.997 621.75 650.5C621.917 648.838 621.917 647.163 621.75 645.5C621.85 644.252 621.85 642.998 621.75 641.75C599.813 583.258 560.621 532.812 509.368 497.096C458.115 461.379 397.22 442.078 334.75 441.75C253.118 442.588 175.043 475.287 117.178 532.873C59.3119 590.458 26.2346 668.373 25 750C25 756.63 27.6339 762.989 32.3223 767.678C37.0107 772.366 43.3696 775 50 775H325C331.63 775 337.989 772.366 342.678 767.678C347.366 762.989 350 756.63 350 750C350 743.37 347.366 737.011 342.678 732.322C337.989 727.634 331.63 725 325 725H77C83.7339 661.219 113.651 602.129 161.072 558.948C208.493 515.766 270.118 491.498 334.25 490.75C386.712 491.051 437.84 507.308 480.842 537.361C523.844 567.413 556.685 609.838 575 659V661C577.553 665.955 581.689 669.915 586.75 672.25H588C590.835 673.504 593.9 674.152 597 674.152C600.1 674.152 603.165 673.504 606 672.25L607 673.25ZM442 97.5C451.098 89.3389 461.83 83.2105 473.483 79.5234C485.135 75.8364 497.439 74.6753 509.576 76.1175C521.712 77.5597 533.402 81.5722 543.865 87.8874C554.329 94.2027 563.326 102.676 570.258 112.742C577.19 122.808 581.896 134.235 584.064 146.263C586.231 158.291 585.81 170.643 582.829 182.496C579.848 194.348 574.374 205.429 566.773 215C559.173 224.571 549.619 232.412 538.75 238C535.812 239.477 533.193 241.519 531.044 244.008C528.895 246.498 527.257 249.386 526.224 252.508C525.19 255.631 524.783 258.926 525.023 262.206C525.263 265.486 526.148 268.687 527.625 271.625C529.102 274.563 531.144 277.182 533.633 279.331C536.123 281.48 539.011 283.118 542.133 284.151C545.256 285.185 548.551 285.592 551.831 285.352C555.111 285.112 558.312 284.227 561.25 282.75C578.435 273.897 593.534 261.482 605.543 246.333C617.551 231.183 626.192 213.648 630.889 194.897C635.586 176.145 636.231 156.607 632.782 137.586C629.333 118.565 621.869 100.498 610.887 84.5895C599.905 68.6807 585.658 55.296 569.095 45.3276C552.532 35.3593 534.035 29.0364 514.836 26.7804C495.636 24.5245 476.177 26.3875 457.755 32.2451C439.333 38.1026 422.371 47.8203 408 60.75C405.587 62.9825 403.637 65.6684 402.262 68.6544C400.887 71.6403 400.114 74.8679 399.986 78.1528C399.858 81.4376 400.379 84.7155 401.518 87.7992C402.657 90.8829 404.393 93.712 406.625 96.125C408.857 98.5381 411.543 100.488 414.529 101.863C417.515 103.238 420.743 104.011 424.028 104.139C427.313 104.267 430.59 103.746 433.674 102.607C436.758 101.468 439.587 99.7325 442 97.5ZM527.5 304.25C520.87 303.587 514.247 305.585 509.09 309.805C503.933 314.024 500.663 320.12 500 326.75C499.337 333.38 501.335 340.003 505.555 345.16C509.774 350.317 515.87 353.587 522.5 354.25C573.401 360.419 620.764 383.474 657.02 419.73C693.276 455.986 716.331 503.349 722.5 554.25H650C643.37 554.25 637.011 556.884 632.322 561.572C627.634 566.261 625 572.62 625 579.25C625 585.88 627.634 592.239 632.322 596.928C637.011 601.616 643.37 604.25 650 604.25H750C756.63 604.25 762.989 601.616 767.678 596.928C772.366 592.239 775 585.88 775 579.25C774.084 511.201 748.482 445.801 702.955 395.215C657.429 344.63 595.077 312.304 527.5 304.25Z" fill="white"/>
</svg>
