<svg width="800" height="800" viewBox="0 0 800 800" fill="none" xmlns="http://www.w3.org/2000/svg">
<path opacity="0.1" d="M299.2 100C135.159 100 100 135.159 100 299.2V500.8C100 664.84 135.159 700 299.2 700H300V300H700V299.2C700 135.159 664.84 100 500.8 100H299.2Z" fill="white"/>
<path d="M100 299.2C100 135.159 135.159 100 299.2 100H500.8C664.84 100 700 135.159 700 299.2V500.8C700 664.84 664.84 700 500.8 700H299.2C135.159 700 100 664.84 100 500.8V299.2Z" stroke="white" stroke-width="66.6667"/>
<path d="M700 300H100" stroke="white" stroke-width="66.6667" stroke-linecap="round" stroke-linejoin="round"/>
<path d="M300 700V300" stroke="white" stroke-width="66.6667" stroke-linecap="round" stroke-linejoin="round"/>
</svg>
