<svg width="800" height="800" viewBox="0 0 800 800" fill="none" xmlns="http://www.w3.org/2000/svg">
<path d="M200 100C226.522 100 251.957 110.536 270.711 129.289C289.464 148.043 300 173.478 300 200V578C300 610.356 312.854 641.388 335.733 664.267C358.612 687.146 389.644 700 422 700C445.56 699.981 468.611 693.14 488.368 680.304C508.124 667.468 523.742 649.186 533.333 627.667L591.667 496.333C597.072 484.065 599.838 470.798 599.785 457.392C599.733 443.986 596.864 430.741 591.364 418.515C585.864 406.289 577.856 395.356 567.859 386.424C557.862 377.492 546.099 370.76 533.333 366.667" stroke="white" stroke-width="66.6667" stroke-linecap="round" stroke-linejoin="round"/>
<path d="M200 366.667H400" stroke="white" stroke-width="66.6667" stroke-linecap="round" stroke-linejoin="round"/>
</svg>
