<svg width="800" height="800" viewBox="0 0 800 800" fill="none" xmlns="http://www.w3.org/2000/svg">
<path fill-rule="evenodd" clip-rule="evenodd" d="M502.821 161.753C512.33 126.19 544.773 100 583.333 100C629.357 100 666.667 137.31 666.667 183.333C666.667 227.601 632.15 263.807 588.563 266.505C595.969 287.403 600 309.897 600 333.333V533.333H633.333C651.667 533.333 666.667 548.333 666.667 566.667C666.667 585 651.667 600 633.333 600H500V633.333C500 688.562 455.229 733.333 400 733.333C344.772 733.333 300 688.562 300 633.333V600H166.667C148.333 600 133.333 585 133.333 566.667C133.333 548.333 148.333 533.333 166.667 533.333H200V333.333C200 234.233 272.076 151.968 366.667 136.099V100C366.667 81.5905 381.591 66.6667 400 66.6667C418.41 66.6667 433.333 81.5905 433.333 100V136.099C458.382 140.301 481.851 149.159 502.821 161.753ZM400 666.667C418.41 666.667 433.333 651.743 433.333 633.333C433.333 624.173 433.333 613.062 433.333 600H366.667C366.667 615.679 366.667 626.79 366.667 633.333C366.667 651.743 381.591 666.667 400 666.667ZM266.667 533.333H533.333V333.333C533.333 259.695 473.638 200 400 200C326.362 200 266.667 259.695 266.667 333.333V533.333Z" fill="white"/>
</svg>
