<svg width="800" height="800" viewBox="0 0 800 800" fill="none" xmlns="http://www.w3.org/2000/svg">
<g clip-path="url(#clip0_1_23)">
<path d="M549.998 575H349.997V625H549.998V575Z" fill="white"/>
<path d="M299.997 575H249.997V625H299.997V575Z" fill="white"/>
<path d="M549.998 450H349.997V500H549.998V450Z" fill="white"/>
<path d="M299.997 450H249.997V500H299.997V450Z" fill="white"/>
<path d="M549.998 325H349.997V375H549.998V325Z" fill="white"/>
<path d="M299.997 325H249.997V375H299.997V325Z" fill="white"/>
<path d="M625 125H550V100C550 86.7392 544.732 74.0215 535.355 64.6447C525.979 55.2678 513.261 50 500 50H300C286.739 50 274.021 55.2678 264.645 64.6447C255.268 74.0215 250 86.7392 250 100V125H175C161.739 125 149.021 130.268 139.645 139.645C130.268 149.021 125 161.739 125 175V700C125 713.261 130.268 725.979 139.645 735.355C149.021 744.732 161.739 750 175 750H625C638.261 750 650.979 744.732 660.355 735.355C669.732 725.979 675 713.261 675 700V175C675 161.739 669.732 149.021 660.355 139.645C650.979 130.268 638.261 125 625 125ZM300 100H500V200H300V100ZM625 700H175V175H250V250H550V175H625V700Z" fill="white"/>
</g>
<defs>
<clipPath id="clip0_1_23">
<rect width="800" height="800" fill="white"/>
</clipPath>
</defs>
</svg>
