<svg width="800" height="800" viewBox="0 0 800 800" fill="none" xmlns="http://www.w3.org/2000/svg">
<g clip-path="url(#clip0_1_37)">
<path d="M93.172 312.234C111.084 380.615 168.855 443.611 242.078 443.611C316.389 443.611 375.088 380.898 393.444 312.698C400.424 311.911 406.193 306.586 406.818 299.324L409.138 272.375C409.723 265.356 405.325 259.344 398.931 257.126C398.81 255.512 398.77 253.878 398.588 252.284C397.216 190.519 386.485 140.656 337.872 120.04C286.556 98.2955 241.331 97.9929 208.129 110.903C205.951 111.77 200.323 119.254 198.124 120.605C195.925 121.957 184.286 118.124 179.869 119.153C107.05 129.561 83.0257 198.164 88.3308 251.659C88.1694 253.152 88.0686 254.665 87.9476 256.178C80.9077 257.932 75.8649 264.327 76.5103 271.79L78.8099 298.739C79.4755 306.364 85.7287 311.891 93.172 312.234ZM108.684 258.86C140.575 247.181 201.916 222.753 208.573 209.924C236.47 238.911 334.987 255.189 378.235 260.615C378.417 263.419 378.659 266.142 378.659 268.966C378.659 340.071 318.991 422.733 242.078 422.733C165.446 422.733 108.18 341.563 108.18 268.966C108.159 265.557 108.422 262.229 108.684 258.86Z" fill="white"/>
<path d="M359.415 419.102C355.582 418.517 351.831 419.385 349.37 420.373L288.028 503.338L241.493 466.223L241.21 466.465V466.727L241.15 466.667L194.614 503.782L133.273 420.817C130.832 419.808 127.06 418.941 123.227 419.526C7.34242 435.865 0 697.61 0 697.61L241.432 697.771V697.347L482.642 697.186C482.642 697.186 475.28 435.441 359.415 419.102Z" fill="white"/>
<path d="M484.054 308.664C498.578 364.135 545.456 415.189 604.821 415.189C665.093 415.189 712.718 364.337 727.605 309.007C733.253 308.361 737.953 304.065 738.457 298.174L740.333 276.329C740.817 270.62 737.226 265.739 732.042 263.944C731.962 262.673 731.901 261.321 731.76 260.05C730.651 209.965 721.957 169.481 682.542 152.779C640.928 135.149 604.236 134.887 577.307 145.356C575.552 146.062 570.993 152.133 569.218 153.263C567.403 154.372 557.983 151.225 554.413 152.073C495.35 160.504 475.845 216.157 480.141 259.546C480 260.777 479.939 261.987 479.839 263.217C474.13 264.65 470.055 269.834 470.58 275.865L472.436 297.711C472.94 303.883 478.023 308.381 484.054 308.664ZM496.621 265.356C522.481 255.875 572.264 236.067 577.65 225.658C600.303 249.138 680.202 262.33 715.26 266.788C715.421 269.007 715.623 271.266 715.623 273.545C715.623 331.195 667.252 398.265 604.841 398.265C542.673 398.265 496.218 332.426 496.218 273.545C496.218 270.802 496.399 268.079 496.621 265.356Z" fill="white"/>
<path d="M700.01 395.361C696.904 394.876 693.858 395.582 691.901 396.369L642.118 463.681L604.377 433.586L604.155 433.767V433.989L604.095 433.949L566.354 464.044L516.571 396.732C514.594 395.925 511.528 395.26 508.462 395.724C477.781 400.04 456.541 425.618 441.755 458.033C450.489 471.528 462.794 493.051 473.222 521.372C483.611 549.511 490.489 587.837 494.967 621.382L604.337 621.442V621.079L800 620.958C799.98 620.898 794.009 408.553 700.01 395.361Z" fill="white"/>
</g>
<defs>
<clipPath id="clip0_1_37">
<rect width="800" height="800" fill="white"/>
</clipPath>
</defs>
</svg>
